<?xml version="1.0" encoding="UTF-8" standalone="no"?>
<!-- Created with Inkscape (http://www.inkscape.org/) -->

<svg
   width="209.69331mm"
   height="203.87291mm"
   viewBox="0 0 209.69331 203.87291"
   version="1.1"
   id="svg5"
   inkscape:version="1.2.1 (9c6d41e410, 2022-07-14)"
   sodipodi:docname="shorebird.svg"
   xmlns:inkscape="http://www.inkscape.org/namespaces/inkscape"
   xmlns:sodipodi="http://sodipodi.sourceforge.net/DTD/sodipodi-0.dtd"
   xmlns="http://www.w3.org/2000/svg"
   xmlns:svg="http://www.w3.org/2000/svg">
  <sodipodi:namedview
     id="namedview7"
     pagecolor="#ffffff"
     bordercolor="#000000"
     borderopacity="0.25"
     inkscape:showpageshadow="2"
     inkscape:pageopacity="0.0"
     inkscape:pagecheckerboard="0"
     inkscape:deskcolor="#d1d1d1"
     inkscape:document-units="mm"
     showgrid="false"
     inkscape:zoom="0.84096521"
     inkscape:cx="444.13252"
     inkscape:cy="211.067"
     inkscape:window-width="1493"
     inkscape:window-height="862"
     inkscape:window-x="-8"
     inkscape:window-y="-8"
     inkscape:window-maximized="1"
     inkscape:current-layer="layer1" />
  <defs
     id="defs2" />
  <g
     inkscape:label="图层 1"
     inkscape:groupmode="layer"
     id="layer1"
     transform="translate(-0.31461892,-93.127121)">
    <path
       id="path288"
       style="fill:#999999;stroke-width:0.813824"
       d="M 86.667908,105.9362 A 20.32752,20.956808 0 0 0 66.340563,126.89283 20.32752,20.956808 0 0 0 86.667908,147.84988 20.32752,20.956808 0 0 0 106.99525,126.89283 20.32752,20.956808 0 0 0 86.667908,105.9362 Z m -10.583457,15.41312 a 4.6651572,4.8095784 0 0 1 4.665054,4.80989 4.6651572,4.8095784 0 0 1 -4.665054,4.80947 4.6651572,4.8095784 0 0 1 -4.665055,-4.80947 4.6651572,4.8095784 0 0 1 4.665055,-4.80989 z" />
    <path
       style="fill:#999999;stroke-width:1.25819"
       d="m 67.529134,130.42858 c -16.822336,11.94629 -30.654035,15.92839 -32.523182,15.92839 -1.869148,0 -7.476593,0 -6.448563,3.14376 1.028031,3.14376 5.327075,1.78146 13.738242,-1.78147 8.411167,-3.56293 27.85031,-11.00317 27.85031,-11.00317 z"
       id="path550" />
    <path
       style="fill:#999999;stroke-width:1.27021"
       d="m 132.66686,210.49918 c 0,0 2.01493,29.05986 0.92644,31.7188 -0.78836,1.9258 -0.90936,3.35215 0.92645,4.82677 1.74291,1.39999 -0.92645,31.02927 -0.92645,31.02927 -0.33157,5.14508 2.78088,8.57503 6.0219,0.34477 0,0 0.48587,-29.93425 1.38966,-31.54642 0.9381,-1.67335 1.08729,-3.15506 -0.2316,-4.99915 -1.37769,-1.92632 -1.62128,-30.6845 -1.62128,-30.6845 z"
       id="path552-4"
       sodipodi:nodetypes="cssccsscc" />
    <path
       style="fill:#999999;stroke-width:1.27021"
       d="m 98.373022,210.25052 c 0,0 2.014908,29.05986 0.926434,31.7188 -0.788357,1.9258 -0.909354,3.35215 0.926444,4.82677 1.7429,1.39999 -0.926444,31.02927 -0.926444,31.02927 -0.33157,5.14508 2.780874,8.57503 6.021894,0.34477 0,0 0.48587,-29.93425 1.38965,-31.54642 0.9381,-1.67335 1.08729,-3.15506 -0.23159,-4.99915 -1.37769,-1.92632 -1.62129,-30.6845 -1.62129,-30.6845 z"
       id="path552-4-7"
       sodipodi:nodetypes="cssccsscc" />
    <path
       id="path598"
       style="fill:#d5e5ff;stroke-width:1.01678"
       d="M 209.46671 276.75209 C 206.74251 276.88389 200.96569 281.01707 197.53256 281.07947 C 189.31181 281.22882 181.44476 277.11875 173.22603 276.88386 C 165.60723 276.66612 158.12881 279.34731 150.50804 279.47957 C 142.27639 279.62243 134.11288 277.20731 125.88628 277.52879 C 118.96768 277.79915 112.2933 280.64463 105.37074 280.78027 C 96.255916 280.95886 87.327085 277.45192 78.211156 277.56031 C 69.811916 277.66021 61.662309 280.94341 53.264359 281.12133 C 45.639941 281.28286 38.120639 278.57929 30.49934 278.85067 C 24.243598 279.07343 18.214549 281.35388 11.992459 282.0391 C 8.7785631 282.39303 3.159769 280.2474 0.31461892 280.70327 L 0.31461892 296.99995 L 210.00776 296.99995 L 210.00776 276.79446 C 209.84391 276.75857 209.66498 276.7425 209.46671 276.75209 z " />
    <ellipse
       style="fill:#999999;fill-opacity:1;stroke-width:1.15387"
       id="path409"
       cx="74.542068"
       cy="126.26537"
       rx="1.9664513"
       ry="2.0273275" />
    <path
       style="fill:#999999;stroke-width:0.985162"
       d="m 66.877711,169.42695 c 2.859591,-9.91623 9.123717,-22.46653 19.873004,-24.57687 29.585055,-5.80823 64.225925,16.79029 79.171495,41.36105 1.95516,3.21433 1.76896,7.95 -0.32053,11.08957 -6.0604,9.10604 -19.08393,13.54782 -30.45057,14.98588 -21.78569,2.75625 -49.636536,2.02112 -64.427015,-13.18758 -7.168439,-7.37112 -6.620406,-20.05256 -3.846384,-29.67205 z"
       id="path453"
       sodipodi:nodetypes="aaaaaaa" />
  </g>
</svg>
