<svg enable-background="new 796 796 200 200" height="200" viewBox="796 796 200 200" width="200" xmlns="http://www.w3.org/2000/svg"><path fill="#FFFFFF" d="m990.047 906.386c.028.041.045.065.045.065l-21.113-43.591c-.299-.637-.618-1.264-.955-1.878l-.024-.047v.002c-4.397-7.982-11.835-14.06-20.737-16.677l-7.659-15.578-.019.018c-3.283-6.246-9.828-10.521-17.362-10.521-10.812 0-19.608 8.798-19.608 19.611v20.027c0 3.65-2.959 6.609-6.609 6.612-.002 0-.003 0-.004 0-.002 0-.003 0-.004 0-3.651-.003-6.608-2.962-6.608-6.612v-20.027c0-10.813-8.798-19.611-19.611-19.611-7.533 0-14.077 4.275-17.361 10.521l-.019-.018-7.658 15.578c-8.903 2.617-16.341 8.693-20.737 16.676l-.002-.001-.023.046c-.337.615-.654 1.242-.955 1.878l-21.113 43.592s.017-.024.045-.065c-3.274 6.345-5.137 13.531-5.137 21.15 0 25.521 20.765 46.285 46.286 46.285 20.187 0 37.386-12.995 43.699-31.056.026-.065.051-.121.077-.193 1.849-5.078 5.639-7.282 9.122-7.282s7.274 2.204 9.12 7.282c.028.072.053.128.078.193 6.313 18.061 23.513 31.056 43.7 31.056 25.521 0 46.286-20.764 46.286-46.285-.002-7.619-1.864-14.806-5.14-21.15zm-147.027 55.607c-18.808 0-34.054-15.247-34.054-34.054 0-18.806 15.246-34.053 34.054-34.053 18.807 0 34.053 15.247 34.053 34.053-.001 18.807-15.247 34.054-34.053 34.054zm105.907 0c-18.806 0-34.053-15.247-34.053-34.054 0-18.806 15.247-34.053 34.053-34.053 18.808 0 34.054 15.247 34.054 34.053-.001 18.807-15.247 34.054-34.054 34.054z"/></svg>