<?xml version="1.0" encoding="UTF-8" standalone="no"?>
<!-- Created with Inkscape (http://www.inkscape.org/) -->

<svg
   width="221.83434mm"
   height="221.83434mm"
   viewBox="0 0 221.83434 221.83434"
   version="1.1"
   id="svg5"
   xml:space="preserve"
   inkscape:version="1.2.2 (b0a8486541, 2022-12-01)"
   sodipodi:docname="robin.svg"
   xmlns:inkscape="http://www.inkscape.org/namespaces/inkscape"
   xmlns:sodipodi="http://sodipodi.sourceforge.net/DTD/sodipodi-0.dtd"
   xmlns:xlink="http://www.w3.org/1999/xlink"
   xmlns="http://www.w3.org/2000/svg"
   xmlns:svg="http://www.w3.org/2000/svg"><sodipodi:namedview
     id="namedview7"
     pagecolor="#ffffff"
     bordercolor="#000000"
     borderopacity="0.25"
     inkscape:showpageshadow="2"
     inkscape:pageopacity="0.0"
     inkscape:pagecheckerboard="0"
     inkscape:deskcolor="#d1d1d1"
     inkscape:document-units="mm"
     showgrid="false"
     inkscape:zoom="0.36302547"
     inkscape:cx="279.59471"
     inkscape:cy="539.90702"
     inkscape:window-width="1440"
     inkscape:window-height="831"
     inkscape:window-x="0"
     inkscape:window-y="0"
     inkscape:window-maximized="1"
     inkscape:current-layer="layer1" /><defs
     id="defs2"><linearGradient
       inkscape:collect="always"
       id="linearGradient52094"><stop
         style="stop-color:#7c4916;stop-opacity:1;"
         offset="0"
         id="stop52090" /><stop
         style="stop-color:#f3d7bc;stop-opacity:1;"
         offset="1"
         id="stop52092" /></linearGradient><linearGradient
       inkscape:collect="always"
       id="linearGradient42761"><stop
         style="stop-color:#ffffff;stop-opacity:1;"
         offset="0"
         id="stop42757" /><stop
         style="stop-color:#d4d9e4;stop-opacity:1;"
         offset="1"
         id="stop42759" /></linearGradient><linearGradient
       inkscape:collect="always"
       id="linearGradient31705"><stop
         style="stop-color:#392219;stop-opacity:1;"
         offset="0"
         id="stop31699" /><stop
         style="stop-color:#4a2511;stop-opacity:1;"
         offset="1"
         id="stop31703" /></linearGradient><linearGradient
       inkscape:collect="always"
       id="linearGradient20375"><stop
         style="stop-color:#8e7175;stop-opacity:1"
         offset="0"
         id="stop20371" /><stop
         style="stop-color:#826061;stop-opacity:1"
         offset="0.27392721"
         id="stop28038" /><stop
         style="stop-color:#4f3429;stop-opacity:1"
         offset="1"
         id="stop20373" /></linearGradient><linearGradient
       inkscape:collect="always"
       id="linearGradient16173"><stop
         style="stop-color:#6c5a66;stop-opacity:1"
         offset="0"
         id="stop16169" /><stop
         style="stop-color:#2c1f2e;stop-opacity:1"
         offset="1"
         id="stop16171" /></linearGradient><linearGradient
       inkscape:collect="always"
       id="linearGradient5197"><stop
         style="stop-color:#fcd4b6;stop-opacity:1"
         offset="0"
         id="stop5193" /><stop
         style="stop-color:#ffa869;stop-opacity:1"
         offset="0.34097919"
         id="stop13407" /><stop
         style="stop-color:#e26a2b;stop-opacity:1"
         offset="1"
         id="stop5195" /></linearGradient><linearGradient
       inkscape:collect="always"
       xlink:href="#linearGradient5197"
       id="linearGradient5199"
       x1="50.374573"
       y1="108.59901"
       x2="79.519958"
       y2="157.2919"
       gradientUnits="userSpaceOnUse" /><radialGradient
       inkscape:collect="always"
       xlink:href="#linearGradient16173"
       id="radialGradient16175"
       cx="76.646286"
       cy="90.885483"
       fx="76.646286"
       fy="90.885483"
       r="48.322823"
       gradientTransform="matrix(1.5980765,1.0298789,-0.36018409,0.55890231,-13.104835,-30.538026)"
       gradientUnits="userSpaceOnUse" /><linearGradient
       inkscape:collect="always"
       xlink:href="#linearGradient20375"
       id="linearGradient20377"
       x1="95.167824"
       y1="121.5598"
       x2="132.5336"
       y2="162.35703"
       gradientUnits="userSpaceOnUse" /><linearGradient
       inkscape:collect="always"
       xlink:href="#linearGradient31705"
       id="linearGradient31697"
       x1="130.49338"
       y1="161.00525"
       x2="155.61963"
       y2="180.17757"
       gradientUnits="userSpaceOnUse" /><radialGradient
       inkscape:collect="always"
       xlink:href="#linearGradient42761"
       id="radialGradient42763"
       cx="51.53294"
       cy="140.61545"
       fx="51.53294"
       fy="140.61545"
       r="62.220936"
       gradientTransform="matrix(-0.52466338,0.44210533,-0.61252002,-0.72690352,199.1753,242.81149)"
       gradientUnits="userSpaceOnUse" /><linearGradient
       inkscape:collect="always"
       xlink:href="#linearGradient52094"
       id="linearGradient52096"
       x1="38.458035"
       y1="98.786224"
       x2="36.703472"
       y2="108.6866"
       gradientUnits="userSpaceOnUse" /><filter
       inkscape:collect="always"
       style="color-interpolation-filters:sRGB"
       id="filter54639"
       x="-0.030091081"
       y="-0.036768429"
       width="1.0601822"
       height="1.0735369"><feGaussianBlur
         inkscape:collect="always"
         stdDeviation="0.90686632"
         id="feGaussianBlur54641" /></filter><filter
       inkscape:collect="always"
       style="color-interpolation-filters:sRGB"
       id="filter56122"
       x="-0.061034945"
       y="-0.063490838"
       width="1.1220699"
       height="1.1269817"><feGaussianBlur
         inkscape:collect="always"
         stdDeviation="1.7753739"
         id="feGaussianBlur56124" /></filter><filter
       inkscape:collect="always"
       style="color-interpolation-filters:sRGB"
       id="filter56183"
       x="-0.033147294"
       y="-0.04123742"
       width="1.0662946"
       height="1.0824748"><feGaussianBlur
         inkscape:collect="always"
         stdDeviation="0.89633028"
         id="feGaussianBlur56185" /></filter></defs><g
     inkscape:label="图层 1"
     inkscape:groupmode="layer"
     id="layer1"
     transform="translate(14.496855,-33.383762)"><path
       style="fill:url(#linearGradient52096);fill-opacity:1;stroke-width:0.264583"
       d="M 52.696183,98.249419 21.358108,96.359548 18.834152,99.123163 41.041243,118.82398 Z"
       id="path52080" /><path
       style="fill:url(#radialGradient42763);fill-opacity:1;stroke-width:0.264583"
       d="m 98.60582,209.71039 c 44.35568,0.43623 62.19743,-25.05872 62.19743,-25.05872 L 90.893597,121.59818 36.361375,150.20359 c 0,0 3.62105,31.69184 22.432578,45.44462 18.811529,13.75277 27.913351,13.82055 39.811867,14.06218 z"
       id="path4965" /><path
       style="fill:url(#linearGradient5199);fill-opacity:1;stroke-width:0.264583"
       d="m 95.619987,100.75746 13.225793,16.14603 c 0,0 -20.362936,41.70221 -51.956377,46.7872 -31.59344,5.085 -18.607079,-46.55214 -3.671342,-63.22952 14.935737,-16.677382 42.401926,0.29629 42.401926,0.29629 z"
       id="path4855" /><path
       style="opacity:0.754696;mix-blend-mode:normal;fill:#0d0b11;fill-opacity:1;stroke-width:0.264583;filter:url(#filter56122)"
       d="m 90.247472,124.54392 c 0,0 -13.500558,12.32731 -1.946468,33.00553 11.554087,20.67821 40.975576,31.69604 60.871946,34.1049 4.34097,-3.93579 6.25541,-0.83804 1.43102,-6.82308 0,0 -10.82167,2.32928 -31.70055,-9.1957 -15.58229,-8.60129 -23.923789,-20.10157 -29.024328,-32.22271 -3.780039,-8.98305 0.36838,-18.86894 0.36838,-18.86894 z"
       id="path51235-2"
       sodipodi:nodetypes="csccssc" /><path
       style="fill:url(#radialGradient16175);fill-opacity:1;stroke-width:0.264583"
       d="M 47.531753,109.18112 C 63.692,85.811566 89.502905,82.908046 98.667048,84.040717 107.83119,85.173388 136.9942,94.309106 144.2352,125.6478 c 7.24101,31.3387 -1.9604,19.6532 -9.58834,21.51857 -23.90656,5.84622 -31.82668,-40.78248 -57.782643,-45.96175 -17.378834,-3.467781 -29.332464,7.9765 -29.332464,7.9765 z"
       id="path285"
       sodipodi:nodetypes="cssasc" /><path
       style="fill:#2b1a0a;fill-opacity:1;stroke-width:0.264583"
       d="m 128.95531,177.4033 c 7.47208,12.40962 41.64478,12.41724 41.64478,12.41724 l 5.87733,-2.70851 c 0,0 -12.75788,-24.95192 -23.5024,-32.52159 -5.89632,-4.15404 -20.71398,6.25577 -20.71398,6.25577 0,0 -6.2088,11.73568 -3.30573,16.55709 z"
       id="path5077"
       sodipodi:nodetypes="accsca" /><path
       style="opacity:0.197912;fill:#000000;fill-opacity:1;stroke-width:0.264583;filter:url(#filter54639)"
       d="m 154.8496,186.83318 c 0.47149,-1.27966 -7.2893,-6.2751 -7.2893,-6.2751 0,0 9.6531,5.65447 10.61391,3.39381 1.05098,-2.4728 -6.36142,-7.99398 -6.36142,-7.99398 0,0 8.94865,6.39241 10.05206,3.8979 1.28668,-2.90882 -6.49874,-8.34925 -6.49874,-8.34925 0,0 8.49142,6.10453 10.4172,3.50541 1.52591,-2.05943 -3.5709,-9.32275 -8.98303,-17.10169 -5.41217,-7.77896 -20.81391,-21.78662 -20.81391,-21.78662 l -37.106179,-7.83668 -5.15237,20.21924 7.256649,14.16942 17.27033,14.6804 25.64943,9.23947 c 0,0 10.3611,1.82344 10.94537,0.23767 z"
       id="path5021-6"
       sodipodi:nodetypes="scscscssccccccs" /><path
       style="fill:url(#linearGradient31697);fill-opacity:1;stroke-width:0.264583"
       d="m 152.07871,184.76551 c 0.47149,-1.27965 -7.2893,-6.27509 -7.2893,-6.27509 0,0 9.6531,5.65447 10.61391,3.39381 1.05098,-2.4728 -6.36142,-7.99399 -6.36142,-7.99399 0,0 8.94865,6.39241 10.05206,3.89791 1.28668,-2.90883 -6.49874,-8.34926 -6.49874,-8.34926 0,0 8.49142,6.10453 10.4172,3.50542 1.52591,-2.05944 -3.5709,-9.32275 -8.98303,-17.1017 -5.41217,-7.77895 -20.81391,-21.78662 -20.81391,-21.78662 l -37.106186,-7.83668 -5.152369,20.21924 7.256653,14.16942 17.270332,14.6804 25.64943,9.23947 c 0,0 10.3611,1.82344 10.94537,0.23767 z"
       id="path5021"
       sodipodi:nodetypes="scscscssccccccs" /><path
       style="opacity:0.16794;fill:#000000;fill-opacity:1;stroke-width:0.264583;filter:url(#filter56183)"
       d="m 96.448496,122.95983 c -12.65064,3.80213 -6.3583,39.9859 16.595504,50.43165 3.35418,1.52641 3.51828,-4.59409 3.51828,-4.59409 0,0 4.35897,6.24089 9.10175,5.21317 4.74279,-1.02771 0.34446,-7.86555 0.34446,-7.86555 0,0 6.33953,7.65338 11.00251,5.25684 4.66298,-2.39654 -1.08921,-8.70675 -1.08921,-8.70675 0,0 7.57684,7.35863 12.29342,4.77238 3.56696,-1.95588 -2.73701,-7.84407 -2.73701,-7.84407 0,0 8.69511,5.23696 9.432,1.78865 0.73689,-3.4483 -31.67397,-46.50326 -58.461704,-38.45223 z"
       id="path4804-7"
       sodipodi:nodetypes="sscscscscss" /><path
       style="fill:url(#linearGradient20377);fill-opacity:1;stroke-width:0.264583"
       d="m 94.995588,120.61484 c -12.650641,3.80213 -6.358306,39.9859 16.595502,50.43165 3.35418,1.52641 3.51828,-4.59409 3.51828,-4.59409 0,0 4.35897,6.24089 9.10175,5.21317 4.74279,-1.02771 0.34446,-7.86555 0.34446,-7.86555 0,0 6.33953,7.65338 11.00251,5.25684 4.66298,-2.39654 -1.08921,-8.70675 -1.08921,-8.70675 0,0 7.57684,7.35863 12.29342,4.77238 3.56696,-1.95588 -2.73701,-7.84407 -2.73701,-7.84407 0,0 8.69511,5.23696 9.432,1.78865 0.73689,-3.4483 -31.67397,-46.50326 -58.461702,-38.45223 z"
       id="path4804"
       sodipodi:nodetypes="sscscscscss" /><path
       style="fill:#0d0b11;fill-opacity:1;stroke-width:0.264583"
       d="m 91.632658,122.92195 c 0,0 -13.500558,12.32731 -1.946468,33.00553 11.55409,20.67821 40.97558,31.69604 60.87195,34.1049 19.89637,2.40887 23.30101,6.33921 27.96044,2.7053 4.65944,-3.63392 -7.25152,-16.82558 -18.9169,-32.65441 -11.66537,-15.82884 -11.19914,-14.51457 -11.19914,-14.51457 0,0 1.73062,-18.80658 -10.03836,-38.76242 C 126.5952,86.850431 102.16638,73.427019 68.966722,84.010832 41.344922,92.816464 30.319565,131.31743 32.44432,154.58059 c 1.781158,19.50124 20.919008,57.45388 63.817075,58.34893 42.898065,0.89505 67.358895,-24.63159 67.358895,-24.63159 l -10.16691,-1.98868 c 0,0 -19.05888,19.82826 -54.269887,20.37219 -35.211009,0.54394 -58.666466,-33.95717 -58.624256,-60.83838 0.05033,-32.05454 22.4309,-59.457902 46.988622,-58.748961 24.557721,0.70894 40.955441,16.360301 46.631751,26.767041 6.72435,12.32816 7.01265,34.83016 7.01265,34.83016 l 28.50822,36.82938 c 0,0 -28.53299,0.0179 -49.41187,-11.50708 -15.58229,-8.60129 -23.923791,-20.10157 -29.024332,-32.22271 -3.780039,-8.98305 0.36838,-18.86894 0.36838,-18.86894 z"
       id="path51235"
       sodipodi:nodetypes="csssscssssccssssccssc" /><path
       style="fill:#0d0b11;fill-opacity:1;stroke-width:0.264583"
       d="m 56.91103,96.061518 c 0,0 -20.264821,-2.03579 -30.243243,-2.907766 -9.978422,-0.871976 -12.075442,-0.27935 -13.294509,2.486795 -0.960152,2.17865 0.381303,4.829053 7.264431,10.091143 6.883128,5.26209 20.422989,15.31203 20.422989,15.31203 L 42.657847,114.61798 20.2861,97.710321 50.25536,101.10854 Z"
       id="path52098"
       sodipodi:nodetypes="csssccccc" /><ellipse
       style="fill:#000000;fill-opacity:1;stroke-width:0.264583"
       id="path52152"
       cx="72.94619"
       cy="107.56695"
       rx="9.6907692"
       ry="9.0551186" /><ellipse
       style="fill:#ffffff;fill-opacity:1;stroke-width:0.264583"
       id="path52206"
       cx="73.283089"
       cy="103.11821"
       rx="2.9838364"
       ry="2.8698277" /></g></svg>
